HIERARCHY
ROOT Hips
{
  OFFSET -125.086 92.215 135.881
  CHANNELS 6 Xposition Yposition Zposition Zrotation Xrotation Yrotation
  JOINT LeftUpLeg
  {
    OFFSET 8.64259 1.95398 -2.38835
    CHANNELS 3 Zrotation Xrotation Yrotation
    JOINT LeftLeg
    {
      OFFSET 43.7702 0 0
      CHANNELS 3 Zrotation Xrotation Yrotation
      JOINT LeftFoot
      {
        OFFSET 40.6238 0 0
        CHANNELS 3 Zrotation Xrotation Yrotation
        JOINT LeftToeBase
        {
          OFFSET 12.7242 0 0
          CHANNELS 3 Zrotation Xrotation Yrotation
          End Site
          {
            OFFSET 0 0 0
          }
        }
      }
    }
  }
  JOINT RightUpLeg
  {
    OFFSET -8.2249 1.95398 -2.59336
    CHANNELS 3 Zrotation Xrotation Yrotation
    JOINT RightLeg
    {
      OFFSET 43.5653 0 0
      CHANNELS 3 Zrotation Xrotation Yrotation
      JOINT RightFoot
      {
        OFFSET 40.6238 0 0
        CHANNELS 3 Zrotation Xrotation Yrotation
        JOINT RightToeBase
        {
          OFFSET 12.7242 0 0
          CHANNELS 3 Zrotation Xrotation Yrotation
          End Site
          {
            OFFSET 0 0 0
          }
        }
      }
    }
  }
  JOINT Spine
  {
    OFFSET 0.165834 0.87714 6.61349
    CHANNELS 3 Zrotation Xrotation Yrotation
    JOINT Spine1
    {
      OFFSET 7.38963 1.71661e-005 0
      CHANNELS 3 Zrotation Xrotation Yrotation
      JOINT Spine2
      {
        OFFSET 11.9445 1.14441e-005 0
        CHANNELS 3 Zrotation Xrotation Yrotation
        JOINT Spine3
        {
          OFFSET 14.7254 4.19617e-005 0
          CHANNELS 3 Zrotation Xrotation Yrotation
          JOINT Spine4
          {
            OFFSET 10.9679 0 0
            CHANNELS 3 Zrotation Xrotation Yrotation
            JOINT RightShoulder
            {
              OFFSET 2.46616 -1.6653 3.69651
              CHANNELS 3 Zrotation Xrotation Yrotation
              JOINT RightArm
              {
                OFFSET 13.0012 0 0
                CHANNELS 3 Zrotation Xrotation Yrotation
                JOINT RightForeArm
                {
                  OFFSET 28.7848 1.52588e-005 0
                  CHANNELS 3 Zrotation Xrotation Yrotation
                  JOINT RightHand
                  {
                    OFFSET 26.5688 1.52588e-005 0
                    CHANNELS 3 Zrotation Xrotation Yrotation
                    End Site
                    {
                      OFFSET 0 0 0
                    }
                  }
                }
              }
            }
            JOINT LeftShoulder
            {
              OFFSET 2.38034 -1.29275 -3.7523
              CHANNELS 3 Zrotation Xrotation Yrotation
              JOINT LeftArm
              {
                OFFSET 16.3182 6.10352e-005 0
                CHANNELS 3 Zrotation Xrotation Yrotation
                JOINT LeftForeArm
                {
                  OFFSET 27.0901 0 0
                  CHANNELS 3 Zrotation Xrotation Yrotation
                  JOINT LeftHand
                  {
                    OFFSET 24.5451 1.52588e-005 0
                    CHANNELS 3 Zrotation Xrotation Yrotation
                    End Site
                    {
                      OFFSET 0 0 0
                    }
                  }
                }
              }
            }
            JOINT Neck
            {
              OFFSET 5.0226 -0.0266342 0
              CHANNELS 3 Zrotation Xrotation Yrotation
              JOINT Head
              {
                OFFSET 6.69363 2.86102e-005 0
                CHANNELS 3 Zrotation Xrotation Yrotation
                End Site
                {
                  OFFSET 0 0 0
                }
              }
            }
          }
        }
      }
    }
  }
}
MOTION
Frames:	13
Frame Time:	0.0416667
-235.621 91.0171 256.469 -98.5521 -59.9802 -95.0478 -178.35 -5.51787 90.8775 -38.9583 22.3068 8.328 63.6075 6.666 0.56818 55.5287 -1.57354 5.91943 175.657 16.121 89.3603 -14.4983 -3.07815 1.54714 52.0716 4.53104 19.0252 56.9572 -5.80797 -9.02873 -2.72671 8.18681 -90.0323 10.5197 -5.44595 0.421483 -1.13994 -5.42212 0.661478 -23.764 -5.32012 -1.23953 -3.75137 -5.32013 -1.23953 101.945 -55.9693 -82.4914 34.2967 8.91849 -16.2995 0.567234 -36.8394 0.000362252 -10.9252 -0.44351 -0.479323 -74.2445 -36.2746 103.348 -42.1254 2.45583 -30.8974 22.3908 42.7256 -33.0147 -10.097 0.205325 -8.74983 8.77956 3.34002 -28.5755 -20.6256 5.07961 29.8472 
-229.769 90.7148 249.18 -102.849 -58.4511 -101.094 -178.643 -7.04846 86.6109 -32.7659 25.0125 7.45889 67.8964 11.077 11.9386 50.3113 -1.2924 7.24352 175.146 16.5298 86.7617 -9.91845 4.34686 1.02526 50.7478 3.75823 24.6196 65.5041 -7.0778 -5.51398 -2.35809 8.25992 -89.7557 10.3784 -4.58577 0.885833 -1.28497 -4.54234 1.0872 -23.8846 -4.63957 -0.536346 -3.87197 -4.63954 -0.536344 106.089 -56.3481 -76.5038 30.9496 8.2158 -10.9045 -0.708492 -36.0154 -4.83292 -9.75593 -0.51912 1.01687 -74.8703 -40.2271 101.953 -38.8903 2.61027 -32.5962 21.6689 47.12 -32.064 -10.2058 0.214867 -8.83208 7.56255 2.25549 -25.1855 -19.4631 3.7101 26.8907 
-224.641 90.3551 242.75 -105.032 -54.8917 -103.565 -177.438 -4.46702 85.5754 -31.8692 24.0153 5.51604 69.9725 12.2425 14.8948 45.4152 -1.28363 3.9879 171.991 19.6648 86.3727 -19.2078 1.33987 2.7271 49.9913 3.35161 24.8875 63.3535 -6.90282 -6.84651 -1.61729 8.39008 -89.6997 10.1067 -3.08609 0.853001 -1.56096 -3.04556 0.988108 -24.1256 -3.19961 -0.114871 -4.11292 -3.1996 -0.114863 109.005 -55.3262 -72.1809 29.5652 6.35704 -5.88104 -2.6054 -36.5008 -9.9262 -7.20705 -0.336751 0.276388 -75.3948 -43.797 100.874 -36.9414 1.19021 -31.9019 21.2747 51.3613 -30.5305 -9.20819 0.17103 -8.77681 6.47063 1.14105 -17.8791 -17.7813 1.90129 22.0523 
-220.592 90.811 237.776 -105.42 -54.0082 -102.781 -177.1 -0.0948441 85.8887 -32.4428 21.7895 4.98669 70.6379 11.3523 13.2032 39.6964 -1.0148 3.60654 170.33 22.2973 86.27 -41.7534 -7.06158 2.0287 52.1852 2.85614 23.1528 59.7577 -6.01791 -6.46969 -1.06075 8.28308 -89.9975 10.311 -2.11214 0.188195 -1.35825 -2.10178 0.281002 -23.907 -2.07101 -0.455583 -3.8943 -2.071 -0.455575 110.72 -53.7817 -69.4516 29.3778 6.66839 -3.21722 -3.90433 -38.1635 -11.503 -4.81173 -0.243766 0.889409 -75.5978 -45.6519 100.462 -38.3718 -1.51255 -26.5874 16.6718 52.1708 -22.991 -4.8238 -0.015346 -7.63153 5.94211 0.132524 -11.5528 -18.28 -0.0493603 18.6424 
-216.98 91.2857 233.003 -104.445 -51.74 -100.24 -176.97 3.79728 87.1945 -31.9536 17.6485 4.67827 69.87 9.21898 9.98297 34.2711 -0.611772 2.09895 172.288 19.0541 86.0975 -59.0138 -11.8711 -0.803869 52.0166 2.64709 21.0638 54.8049 -5.2218 -8.54196 -0.447934 8.02669 -90.3334 10.8178 -1.04581 -0.565721 -0.852826 -1.06972 -0.519139 -23.3893 -0.827432 -0.853878 -3.37664 -0.827468 -0.85389 111.302 -52.4733 -68.3755 28.5913 6.48599 -1.75763 -4.30388 -36.9391 -12.5947 -4.14997 -0.205232 0.670757 -75.4862 -46.8085 100.59 -38.7477 -6.20135 -18.0829 14.937 54.7813 -18.6518 -5.35207 -0.00740651 -7.56514 5.95773 -0.388071 -9.4702 -19.008 -0.800013 16.5278 
-213.518 91.5039 227.948 -102.817 -48.8318 -99.8244 -177.025 7.2953 86.7579 -29.4996 17.5335 3.39372 65.6402 6.51989 10.4172 33.9434 -0.596556 2.17118 173.302 10.6341 82.6788 -62.2793 -11.9601 -3.03115 51.8369 2.36252 19.1365 53.8291 -5.15742 -9.86167 -0.0695817 7.82485 -90.2588 11.2232 -0.258828 -0.489715 -0.447823 -0.280135 -0.477856 -22.9823 -0.0996939 -0.544866 -2.9696 -0.0996857 -0.544867 110.694 -52.1715 -69.2409 29.1399 6.23121 -2.90423 -4.94482 -33.8103 -14.5213 -7.66168 -0.405425 0.984496 -74.8562 -46.9806 101.575 -37.3605 -11.5643 -12.1547 12.0692 64.7196 -11.983 -7.96565 0.0551136 -7.40691 6.19513 -0.364813 -10.8582 -19.0772 -0.725713 18.1906 
-209.931 91.7489 222.5 -99.9679 -45.745 -97.4419 -177.581 11.5241 87.1376 -26.0537 15.0338 3.19958 60.2137 3.07281 9.73586 34.2074 -0.541796 1.12784 173.898 0.165575 81.5063 -49.5599 -12.0681 -4.47699 50.0699 3.27277 23.7383 61.7893 -7.03871 -9.32066 0.378151 7.54318 -90.3675 11.7893 0.579388 -0.792404 0.118271 0.543962 -0.817138 -22.4167 0.790752 -0.58164 -2.40406 0.790759 -0.581648 110.255 -51.7013 -69.8329 29.2709 4.40776 -4.89067 -5.66985 -29.7205 -18.7093 -11.5744 -0.658843 1.64175 -73.6892 -48.0978 103.327 -36.4 -18.5336 -8.81068 7.70832 73.1721 -1.93763 -9.57458 0.0612541 -6.79549 6.02511 -0.105657 -9.7038 -20.1867 -0.765604 17.35 
-206.212 91.7077 215.67 -96.3002 -43.9802 -95.2371 -178.908 15.3909 88.2004 -18.4296 13.5448 3.29944 51.8035 -0.920084 8.38017 34.6247 -0.575871 0.806425 173.147 -4.86635 82.3151 -34.2539 -12.5079 -4.27619 58.4424 1.44842 23.5481 62.6061 -5.85384 -2.47633 0.674726 7.3748 -90.4138 12.1283 1.14562 -0.950833 0.457508 1.10268 -1.00034 -22.0805 1.37844 -0.562534 -2.06781 1.37841 -0.562548 110.032 -50.7195 -70.0254 29.3405 1.25787 -8.19664 -8.20257 -27.9155 -25.832 -10.3491 -0.491436 0.322242 -73.2022 -48.8044 104.025 -35.6903 -21.3917 -6.93473 9.75025 71.8929 -2.10002 -11.6703 0.182528 -7.68208 8.3127 0.0172772 -9.14882 -21.7283 -0.695459 16.626 
-201.783 92.0078 207.632 -97.1378 -43.6622 -93.7475 -177.938 15.1222 91.604 -9.22115 14.1166 3.78336 49.731 -0.959004 4.32798 41.1846 -1.10365 6.81791 172.705 -4.76968 85.7001 -29.162 -9.7205 -1.41024 69.1123 -1.4675 19.4912 46.8366 -2.9949 -2.95027 0.745422 7.79708 -90.6808 11.2857 1.16666 -1.47139 -0.385609 1.10078 -1.52131 -22.9211 1.5549 -1.05276 -2.90844 1.55489 -1.05278 109.551 -50.875 -70.7863 27.7879 -2.00556 -13.1314 -11.2281 -28.132 -32.3584 -7.8985 -0.22971 -1.912 -73.4761 -48.6158 103.618 -37.4726 -19.308 -9.50096 12.8769 66.5018 -6.20797 -12.6649 0.225233 -7.875 11.1022 -0.111368 -12.0196 -20.9096 -0.166592 19.1028 
-197.847 92.7627 200.872 -97.8762 -45.1458 -94.8838 -177.927 15.9021 91.7411 -9.80184 11.3535 3.11375 50.2723 -0.344553 3.54743 46.2712 -1.1258 9.68935 173.558 -1.09437 87.4815 -28.8276 -4.93029 -0.345546 71.2183 -1.76567 17.3757 36.6572 -1.20755 0.000367261 0.444924 8.10826 -90.6162 10.6592 0.602371 -1.28015 -1.01229 0.545451 -1.30541 -23.5448 0.959242 -1.03997 -3.5322 0.95924 -1.03995 109.854 -51.4015 -70.3982 25.9611 -3.51478 -16.584 -11.9366 -28.8698 -33.5087 -7.5718 -0.188906 -2.40617 -73.7084 -48.0255 103.303 -39.3131 -14.3117 -13.7046 14.7472 63.5307 -10.9991 -11.8995 0.164005 -7.41467 13.73 -0.571301 -14.8222 -22.6157 -0.173409 20.7398 
-194.217 93.5258 195.521 -99.5639 -48.5458 -97.0327 -179.718 16.358 90.775 -25.4067 9.18277 2.95388 51.5569 2.12682 3.09984 49.6343 -0.870551 13.3306 174.273 1.95485 88.3202 -29.1952 -2.21792 -0.0331676 67.7925 0.344346 17.7439 34.3366 -0.814003 -1.11142 0.166345 8.19005 -90.5988 10.4926 0.0565302 -1.19481 -1.17889 0.0038656 -1.19614 -23.7101 0.412978 -1.12259 -3.69747 0.412973 -1.1226 110.132 -51.1202 -69.9321 26.2089 -1.5006 -13.892 -9.07902 -26.6198 -29.8349 -10.0154 -0.38435 -0.886138 -74.7558 -47.5609 101.701 -41.5419 -9.16345 -20.024 15.6869 65.2886 -14.0776 -12.3863 0.281063 -8.61009 12.2958 -0.99202 -13.3597 -22.1685 -0.679473 18.4992 
-190.756 93.4474 191.199 -100.361 -49.3819 -98.7626 -178.195 15.9976 88.5939 -48.0603 3.95029 3.28196 55.2286 4.10137 3.96447 51.2038 -0.714858 14.7715 174.493 5.97547 88.0963 -30.662 -2.52107 -0.000623692 67.6086 0.552037 15.7449 30.9202 -0.253529 -1.06944 0.0932575 8.08592 -90.5066 10.7 -0.0476927 -1.00416 -0.971333 -0.0918256 -1.00109 -23.5036 0.256273 -0.97208 -3.49101 0.256309 -0.972074 109.6 -50.1831 -70.6122 26.1898 -0.131125 -9.71983 -5.53094 -26.7719 -23.5264 -11.3722 -0.523339 0.19107 -74.8434 -47.6928 101.557 -40.7384 -3.25483 -24.3285 17.6981 60.1941 -20.9677 -11.394 0.278322 -9.08378 11.0548 -0.474268 -11.0551 -22.6985 -0.702612 16.9724 
-186.988 92.8255 186.998 -100.334 -52.8172 -97.0701 -176.854 11.7594 91.0656 -59.6586 3.53267 4.17618 54.6433 3.89146 2.33397 51.9022 -0.633816 15.3197 174.742 9.50668 89.8389 -30.5624 -0.528517 1.06161 67.6373 1.22439 14.8269 24.8707 0.887407 -2.03002 -0.368847 7.87978 -90.7428 11.1059 -1.07892 -1.37372 -0.565241 -1.13833 -1.32492 -23.096 -0.616256 -1.63442 -3.08338 -0.616244 -1.63442 109.87 -50.6643 -70.2654 24.6514 2.38425 -7.03311 -4.8201 -31.0225 -18.6889 -8.36401 -0.410008 0.556309 -75.1483 -47.9862 101.066 -39.5437 1.08596 -26.5496 20.0018 53.559 -28.7365 -7.85884 0.077622 -7.878 9.97286 0.16693 -10.6353 -22.1598 -0.32551 17.7829 
